# xmcd
#
# Track frame offsets: 
#        182
#        14475
#        27512
#        41457
#        55745
#        67530
#        82745
#        95125
#        109250
#        129222
#        143055
#        155942
#        168507
#        184287
#        197900
#        214607
#        228417
#        241452
#        254725
#        266740
#        280060
#        294150
#        308130
#
# Disc length: 4276 seconds
#
# Revision: 5
# Processed by: cddbd v1.5.2PL0 Copyright (c) Steve Scherf et al.
# Submitted via: ExactAudioCopy v0.95b2
#
DISCID=4c10b217
DTITLE=Various Artist - Before The Blues Volume 1
DYEAR=1996
DGENRE=Blues
TTITLE0=Andrew and Jim Baxter - Bamalong Blues
TTITLE1=Henry Thomas - Run Mollie Run
TTITLE2=Sam Collins - Lonesome Road Blues
TTITLE3=Mississippi Mud Steppers - Jackson Stomp
TTITLE4=Seventh Day Adventist Choir - On Jordan's Stormy Banks We Stan
TTITLE4=d
TTITLE5=Rube Lacy - Mississippi Jail House Groan
TTITLE6=Taylor's Kentucky Boys - Forked Deer
TTITLE7=Little Hat Jones - Bye Bye Baby Blues
TTITLE8=B.F. Shelton - Pretty Polly
TTITLE9=Weaver and Beasley - Soft Steel Piston
TTITLE10=Evans and McClain - Two White Horses In A Line
TTITLE11=Bayless Rose - Jamestown Exhibition
TTITLE12=Willie Walker - Dupree Blues
TTITLE13=Papa Harvey Hull - France Blues
TTITLE14=Rev. Gates and Congregation - Dying Mother and Her Child
TTITLE15=Buell Kazee - John Hardy
TTITLE16=Lottie Kimbrough - Wayward Girl Blues
TTITLE17=Cincinnati Jug Band - Newport Blues
TTITLE18=Dick Devall - Tom Sherman's Barroom
TTITLE19=Mississippi John Hurt - Stack O'Lee Blues
TTITLE20=Teddy Darby - Lawdy Lawdy Worried Blues
TTITLE21=Robert Wilkins - I'll Go With Her Blues
TTITLE22=Denson Quartet - Christian Soldier
EXTD=YEAR: 1996
EXTT0=
EXTT1=
EXTT2=
EXTT3=
EXTT4=
EXTT5=
EXTT6=
EXTT7=
EXTT8=
EXTT9=
EXTT10=
EXTT11=
EXTT12=
EXTT13=
EXTT14=
EXTT15=
EXTT16=
EXTT17=
EXTT18=
EXTT19=
EXTT20=
EXTT21=
EXTT22=
PLAYORDER=
